<svg width="121" height="153" viewBox="0 0 121 153" fill="none" xmlns="http://www.w3.org/2000/svg">
<path d="M58.0352 152.524L116.07 42.86H0L58.0352 152.524Z" fill="#CDC6EF"/>
<path d="M58.1045 141.237C88.4219 141.237 113.061 117.088 113.061 87.224C113.061 57.3598 88.4219 33.2111 58.1045 33.2111C27.7872 33.2111 3.14844 57.3598 3.14844 87.224C3.14844 117.088 27.7872 141.237 58.1045 141.237Z" fill="#323330" stroke="#CDC6EF" stroke-width="4"/>
<mask id="path-3-outside-1_376_6" maskUnits="userSpaceOnUse" x="22" y="38" width="75" height="101" fill="black">
<rect fill="white" x="22" y="38" width="75" height="101"/>
<path d="M27.8125 134V43H51.375C55.5833 43 59.5208 43.5208 63.1875 44.5625C66.8542 45.5625 70.1875 47 73.1875 48.875C75.8125 50.4167 78.1458 52.3125 80.1875 54.5625C82.2708 56.7708 84.0833 59.1875 85.625 61.8125C87.4167 65.0208 88.7917 68.5625 89.75 72.4375C90.75 76.3125 91.25 80.4375 91.25 84.8125V92.3125C91.25 96.5208 90.7917 100.5 89.875 104.25C88.9583 108 87.6667 111.438 86 114.562C84.4167 117.354 82.5625 119.938 80.4375 122.312C78.3125 124.646 75.9792 126.604 73.4375 128.188C70.4792 130.062 67.2083 131.5 63.625 132.5C60.0833 133.5 56.2917 134 52.25 134H27.8125ZM45.5 57.25V119.875H52.25C54.4167 119.875 56.4375 119.604 58.3125 119.062C60.1875 118.521 61.8958 117.729 63.4375 116.688C65.0208 115.604 66.4375 114.229 67.6875 112.562C68.9792 110.854 70.0833 108.875 71 106.625C71.75 104.667 72.3125 102.5 72.6875 100.125C73.1042 97.7083 73.3125 95.1042 73.3125 92.3125V84.6875C73.3125 82.0625 73.1042 79.5833 72.6875 77.25C72.3125 74.875 71.75 72.7083 71 70.75C70.0833 68.4167 68.875 66.3333 67.375 64.5C65.9167 62.6667 64.2083 61.1667 62.25 60C60.75 59.125 59.0833 58.4583 57.25 58C55.4583 57.5 53.5 57.25 51.375 57.25H45.5Z"/>
</mask>
<path d="M27.8125 134V43H51.375C55.5833 43 59.5208 43.5208 63.1875 44.5625C66.8542 45.5625 70.1875 47 73.1875 48.875C75.8125 50.4167 78.1458 52.3125 80.1875 54.5625C82.2708 56.7708 84.0833 59.1875 85.625 61.8125C87.4167 65.0208 88.7917 68.5625 89.75 72.4375C90.75 76.3125 91.25 80.4375 91.25 84.8125V92.3125C91.25 96.5208 90.7917 100.5 89.875 104.25C88.9583 108 87.6667 111.438 86 114.562C84.4167 117.354 82.5625 119.938 80.4375 122.312C78.3125 124.646 75.9792 126.604 73.4375 128.188C70.4792 130.062 67.2083 131.5 63.625 132.5C60.0833 133.5 56.2917 134 52.25 134H27.8125ZM45.5 57.25V119.875H52.25C54.4167 119.875 56.4375 119.604 58.3125 119.062C60.1875 118.521 61.8958 117.729 63.4375 116.688C65.0208 115.604 66.4375 114.229 67.6875 112.562C68.9792 110.854 70.0833 108.875 71 106.625C71.75 104.667 72.3125 102.5 72.6875 100.125C73.1042 97.7083 73.3125 95.1042 73.3125 92.3125V84.6875C73.3125 82.0625 73.1042 79.5833 72.6875 77.25C72.3125 74.875 71.75 72.7083 71 70.75C70.0833 68.4167 68.875 66.3333 67.375 64.5C65.9167 62.6667 64.2083 61.1667 62.25 60C60.75 59.125 59.0833 58.4583 57.25 58C55.4583 57.5 53.5 57.25 51.375 57.25H45.5Z" fill="#CDC6EF"/>
<path d="M27.8125 134H22.8125V139H27.8125V134ZM27.8125 43V38H22.8125V43H27.8125ZM63.1875 44.5625L61.8211 49.3722L61.8465 49.3794L61.8719 49.3863L63.1875 44.5625ZM73.1875 48.875L70.5375 53.115L70.596 53.1515L70.6554 53.1864L73.1875 48.875ZM80.1875 54.5625L76.4847 57.9224L76.5173 57.9583L76.5505 57.9936L80.1875 54.5625ZM85.625 61.8125L89.9904 59.3747L89.9639 59.3272L89.9364 59.2804L85.625 61.8125ZM89.75 72.4375L84.8962 73.6379L84.9023 73.6624L84.9086 73.6869L89.75 72.4375ZM86 114.562L90.3492 117.029L90.3812 116.973L90.4118 116.915L86 114.562ZM80.4375 122.312L84.1342 125.679L84.149 125.663L84.1637 125.646L80.4375 122.312ZM73.4375 128.188L70.7938 123.944L70.7773 123.954L70.7608 123.964L73.4375 128.188ZM63.625 132.5L62.281 127.684L62.2737 127.686L62.2664 127.688L63.625 132.5ZM45.5 57.25V52.25H40.5V57.25H45.5ZM45.5 119.875H40.5V124.875H45.5V119.875ZM63.4375 116.688L66.2368 120.83L66.2489 120.822L66.2609 120.814L63.4375 116.688ZM67.6875 112.562L63.6992 109.547L63.6933 109.555L63.6875 109.562L67.6875 112.562ZM71 106.625L75.6305 108.511L75.6504 108.463L75.6693 108.413L71 106.625ZM72.6875 100.125L67.7602 99.2755L67.7542 99.3103L67.7487 99.3452L72.6875 100.125ZM72.6875 77.25L67.7487 78.0298L67.7565 78.0795L67.7654 78.129L72.6875 77.25ZM71 70.75L75.6693 68.9618L75.6616 68.9417L75.6538 68.9217L71 70.75ZM67.375 64.5L63.462 67.6126L63.4834 67.6396L63.5052 67.6662L67.375 64.5ZM62.25 60L64.809 55.7045L64.7892 55.6927L64.7694 55.6811L62.25 60ZM57.25 58L55.906 62.816L55.9714 62.8342L56.0373 62.8507L57.25 58ZM32.8125 134V43H22.8125V134H32.8125ZM27.8125 48H51.375V38H27.8125V48ZM51.375 48C55.1688 48 58.6424 48.4691 61.8211 49.3722L64.5539 39.7528C60.3992 38.5725 55.9979 38 51.375 38V48ZM61.8719 49.3863C65.1026 50.2674 67.981 51.5172 70.5375 53.115L75.8375 44.635C72.394 42.4828 68.6058 40.8576 64.5031 39.7387L61.8719 49.3863ZM70.6554 53.1864C72.8452 54.4725 74.7836 56.0477 76.4847 57.9224L83.8903 51.2026C81.5081 48.5773 78.7798 46.3608 75.7196 44.5636L70.6554 53.1864ZM76.5505 57.9936C78.3753 59.9278 79.9617 62.0428 81.3136 64.3446L89.9364 59.2804C88.205 56.3322 86.1664 53.6138 83.8245 51.1314L76.5505 57.9936ZM81.2596 64.2503C82.8162 67.0379 84.0357 70.1583 84.8962 73.6379L94.6038 71.2371C93.5476 66.9667 92.0171 63.0038 89.9904 59.3747L81.2596 64.2503ZM84.9086 73.6869C85.794 77.1178 86.25 80.8201 86.25 84.8125H96.25C96.25 80.0549 95.706 75.5072 94.5914 71.1881L84.9086 73.6869ZM86.25 84.8125V92.3125H96.25V84.8125H86.25ZM86.25 92.3125C86.25 96.1564 85.8316 99.7345 85.018 103.063L94.732 105.437C95.7518 101.266 96.25 96.8853 96.25 92.3125H86.25ZM85.018 103.063C84.1917 106.443 83.0416 109.484 81.5882 112.21L90.4118 116.915C92.2917 113.391 93.725 109.557 94.732 105.437L85.018 103.063ZM81.6508 112.096C80.2423 114.579 78.5966 116.871 76.7113 118.979L84.1637 125.646C86.5284 123.004 88.591 120.129 90.3492 117.029L81.6508 112.096ZM76.7408 118.946C74.9082 120.958 72.9254 122.616 70.7938 123.944L76.0812 132.431C79.033 130.593 81.7168 128.334 84.1342 125.679L76.7408 118.946ZM70.7608 123.964C68.2403 125.562 65.4228 126.807 62.281 127.684L64.969 137.316C68.9939 136.193 72.7181 134.563 76.1142 132.411L70.7608 123.964ZM62.2664 127.688C59.2078 128.552 55.8769 129 52.25 129V139C56.7064 139 60.9589 138.448 64.9836 137.312L62.2664 127.688ZM52.25 129H27.8125V139H52.25V129ZM40.5 57.25V119.875H50.5V57.25H40.5ZM45.5 124.875H52.25V114.875H45.5V124.875ZM52.25 124.875C54.8351 124.875 57.3276 124.551 59.7002 123.866L56.9248 114.259C55.5474 114.657 53.9982 114.875 52.25 114.875V124.875ZM59.7002 123.866C62.0526 123.186 64.2412 122.179 66.2368 120.83L60.6382 112.545C59.5505 113.28 58.3224 113.855 56.9248 114.259L59.7002 123.866ZM66.2609 120.814C68.3325 119.397 70.1377 117.629 71.6875 115.562L63.6875 109.562C62.7373 110.829 61.7091 111.812 60.6141 112.561L66.2609 120.814ZM71.6758 115.578C73.2621 113.48 74.5713 111.111 75.6305 108.511L66.3695 104.739C65.5953 106.639 64.6962 108.228 63.6992 109.547L71.6758 115.578ZM75.6693 108.413C76.5607 106.086 77.2046 103.575 77.6263 100.905L67.7487 99.3452C67.4204 101.425 66.9393 103.248 66.3307 104.837L75.6693 108.413ZM77.6148 100.975C78.0859 98.2419 78.3125 95.3506 78.3125 92.3125H68.3125C68.3125 94.8577 68.1224 97.1747 67.7602 99.2755L77.6148 100.975ZM78.3125 92.3125V84.6875H68.3125V92.3125H78.3125ZM78.3125 84.6875C78.3125 81.7988 78.0833 79.0235 77.6096 76.371L67.7654 78.129C68.125 80.1432 68.3125 82.3262 68.3125 84.6875H78.3125ZM77.6263 76.4702C77.2046 73.7996 76.5607 71.2892 75.6693 68.9618L66.3307 72.5382C66.9393 74.1274 67.4204 75.9504 67.7487 78.0298L77.6263 76.4702ZM75.6538 68.9217C74.5581 66.1327 73.0928 63.5925 71.2448 61.3338L63.5052 67.6662C64.6572 69.0741 65.6086 70.7006 66.3462 72.5783L75.6538 68.9217ZM71.288 61.3874C69.4641 59.0945 67.3009 57.189 64.809 55.7045L59.691 64.2955C61.1158 65.1443 62.3692 66.2388 63.462 67.6126L71.288 61.3874ZM64.7694 55.6811C62.8268 54.548 60.7144 53.7122 58.4627 53.1493L56.0373 62.8507C57.4523 63.2045 58.6732 63.702 59.7306 64.3189L64.7694 55.6811ZM58.594 53.184C56.3078 52.546 53.891 52.25 51.375 52.25V62.25C53.109 62.25 54.6089 62.454 55.906 62.816L58.594 53.184ZM51.375 52.25H45.5V62.25H51.375V52.25Z" fill="#323330" mask="url(#path-3-outside-1_376_6)"/>
</svg>
