<svg width="51" height="78" viewBox="0 0 51 78" fill="none" xmlns="http://www.w3.org/2000/svg">
<path fill-rule="evenodd" clip-rule="evenodd" d="M27.225 0.194519C21.6069 2.18562 16.1833 7.99822 10.9555 17.6299C3.11432 32.0799 -7.01514 52.6118 6.9322 68.8692C13.3839 76.389 24.0377 80.8279 38.0189 73.7986C49.2515 68.1504 52.3758 51.9425 48.3429 44.3273C40.0245 28.6172 31.5853 24.7425 29.326 14.9997C27.8194 8.50445 27.1198 3.5702 27.225 0.194519Z" fill="url(#paint0_linear_315_82)"/>
<path fill-rule="evenodd" clip-rule="evenodd" d="M27.2251 0C21.5781 2.01164 16.1557 7.82424 10.9557 17.4354C3.1568 31.8539 -7.01495 52.4173 6.93239 68.6747C13.3841 76.1945 23.9014 78.6242 29.737 74.1647C33.5416 71.2566 36.1283 68.485 37.6192 62.6446C39.2793 56.1422 38.0058 47.3864 37.1323 43.3656C36.028 38.2755 35.6668 32.69 36.0486 26.608C35.9478 26.4856 35.8471 26.3632 35.7465 26.2407C32.7091 22.5219 30.3652 19.2839 29.3262 14.8052C27.8196 8.30993 27.12 3.37568 27.2251 0Z" fill="url(#paint1_linear_315_82)"/>
<path fill-rule="evenodd" clip-rule="evenodd" d="M22.5494 2.52994C17.2902 6.68611 13.3793 13.6574 10.8179 23.4437C6.97585 38.1244 6.56023 51.6622 7.91582 59.5372C10.5424 74.8014 24.1611 80.5959 38.129 73.4917C46.7253 69.1181 50.3064 59.7329 50.1167 49.5454C49.9197 38.9955 29.5352 27.0405 25.9251 18.2376C23.5184 12.3682 22.3936 7.13193 22.5494 2.52994Z" fill="url(#paint2_linear_315_82)"/>
<path fill-rule="evenodd" clip-rule="evenodd" d="M35.8828 30.0525C42.1895 38.1413 43.5644 43.7727 40.0063 46.9454C34.671 51.7045 21.6213 54.8095 13.5035 49.0525C8.09079 45.2141 6.04291 36.9815 7.35984 24.3523C5.15464 28.946 3.26155 33.6832 1.69343 38.5316C0.149365 43.3184 -0.302499 48.3276 0.340258 53.559C2.27578 57.4736 6.97926 60.0869 14.4519 61.4014C25.6639 63.3732 36.2718 62.3982 43.3917 58.8098C48.1387 56.4176 50.3835 54.0351 50.1273 51.6646C50.2977 48.1633 49.2188 44.8311 46.8882 41.6656C44.5564 38.5002 40.8883 34.6303 35.8816 30.0513L35.8828 30.0525Z" fill="url(#paint3_linear_315_82)"/>
<path fill-rule="evenodd" clip-rule="evenodd" d="M11.2356 21.9758C11.1825 27.8174 12.6843 33.3702 15.741 38.6367C20.3261 46.5334 25.6783 54.3359 33.6874 60.8046C39.0276 65.1178 43.2938 66.5096 46.487 64.9849C43.8652 69.6787 41.0743 71.9791 38.1203 71.8849C33.6874 71.7447 28.2832 69.8068 19.6229 59.4007C13.8502 52.4632 9.9006 45.9003 7.77539 39.7132C8.11248 37.2582 8.4701 34.814 8.84705 32.3795C9.22522 29.9438 10.0226 26.4763 11.2356 21.9758Z" fill="url(#paint4_linear_315_82)"/>
<path fill-rule="evenodd" clip-rule="evenodd" d="M24.7809 29.9921C25.2715 34.7524 27.1224 42.364 24.7809 47.4323C22.4395 52.5007 11.6237 61.6563 14.608 69.7234C17.5946 77.7881 24.8703 75.9782 29.4349 72.2606C33.9994 68.543 36.4424 62.4984 36.9836 58.248C37.5249 53.9976 35.6885 45.8194 35.0904 38.7044C34.6917 33.9622 34.9623 29.8967 35.9011 26.5053L34.5032 24.7461L26.2706 22.308C24.9513 24.2592 24.4547 26.8206 24.7809 29.9921Z" fill="url(#paint5_linear_315_82)"/>
<path fill-rule="evenodd" clip-rule="evenodd" d="M27.7189 6.42154C25.0549 7.54757 22.531 9.77789 20.146 13.1137C16.5698 18.1168 14.7478 21.1167 16.0961 31.0348C16.995 37.6472 17.639 43.7304 18.0268 49.2845L29.5566 15.785C29.1723 14.2508 28.8198 12.7088 28.4994 11.1601C28.1858 9.58983 27.9255 8.00941 27.7189 6.42154Z" fill="url(#paint6_linear_315_82)"/>
<path fill-rule="evenodd" clip-rule="evenodd" d="M29.5349 15.7186C26.6075 17.4269 24.3397 20.9259 22.7304 26.2177C21.1223 31.5096 19.6495 38.9073 18.3145 48.4122C20.0953 42.3664 21.2769 37.9891 21.8581 35.2767C22.7304 31.21 23.0288 25.4578 25.3461 21.5529C26.8902 18.9493 28.2868 17.0053 29.5349 15.7173V15.7186Z" fill="#330A4C" fill-opacity="0.316"/>
<path fill-rule="evenodd" clip-rule="evenodd" d="M15.9829 72.4165C20.7988 73.1051 23.3178 73.7165 23.5389 74.2529C23.87 75.0552 22.9288 75.7897 20.2551 75.2956C18.473 74.967 17.0485 74.0065 15.9829 72.4165Z" fill="#CDC6EF"/>
<path fill-rule="evenodd" clip-rule="evenodd" d="M18.4026 6.42154C15.753 9.587 13.4575 12.9421 11.5159 16.487C9.57435 20.0318 8.18493 22.6789 7.35249 24.4236C7.09394 25.7248 6.96829 27.6446 6.97433 30.183C6.98037 32.7226 7.20026 35.5462 7.63279 38.6524C8.00214 32.6184 9.17309 26.6605 11.1148 20.9355C13.0576 15.2087 15.486 10.3699 18.4026 6.42154Z" fill="#EDEDED" fill-opacity="0.603"/>
<defs>
<linearGradient id="paint0_linear_315_82" x1="26.1412" y1="5.89369" x2="23.4585" y2="77.2662" gradientUnits="userSpaceOnUse">
<stop stop-color="#D9D8DC"/>
<stop offset="1" stop-color="white" stop-opacity="0.385"/>
</linearGradient>
<linearGradient id="paint1_linear_315_82" x1="27.3531" y1="5.87581" x2="-0.682494" y2="67.3158" gradientUnits="userSpaceOnUse">
<stop stop-color="#8D67AF" stop-opacity="0.672"/>
<stop offset="1" stop-color="#9F8DAF"/>
</linearGradient>
<linearGradient id="paint2_linear_315_82" x1="30.4854" y1="25.7829" x2="30.4854" y2="75.1919" gradientUnits="userSpaceOnUse">
<stop stop-color="#26053D" stop-opacity="0.762"/>
<stop offset="1" stop-color="#B7B4B4" stop-opacity="0.278"/>
</linearGradient>
<linearGradient id="paint3_linear_315_82" x1="5.13337" y1="29.1243" x2="17.7122" y2="62.4442" gradientUnits="userSpaceOnUse">
<stop stop-color="#91739F" stop-opacity="0.46"/>
<stop offset="1" stop-color="#32054F" stop-opacity="0.54"/>
</linearGradient>
<linearGradient id="paint4_linear_315_82" x1="38.7541" y1="70.0942" x2="4.16569" y2="41.4333" gradientUnits="userSpaceOnUse">
<stop stop-color="#463D49" stop-opacity="0.331"/>
<stop offset="1" stop-color="#340A50" stop-opacity="0.821"/>
</linearGradient>
<linearGradient id="paint5_linear_315_82" x1="31.645" y1="26.2485" x2="7.24936" y2="63.3608" gradientUnits="userSpaceOnUse">
<stop stop-color="#715383" stop-opacity="0.145"/>
<stop offset="1" stop-color="#F4F4F4" stop-opacity="0.234"/>
</linearGradient>
<linearGradient id="paint6_linear_315_82" x1="33.9772" y1="37.5677" x2="16.7011" y2="36.5131" gradientUnits="userSpaceOnUse">
<stop stop-color="#A5A1A8" stop-opacity="0.356"/>
<stop offset="1" stop-color="#370C50" stop-opacity="0.582"/>
</linearGradient>
</defs>
</svg>
