<svg width="75" height="75" viewBox="0 0 75 75" fill="none" xmlns="http://www.w3.org/2000/svg">
<g clip-path="url(#clip0_315_93)">
<path d="M0 0H75V75H0V0Z" fill="#F0DB4F"/>
<path d="M68.8616 57.1126C68.3127 53.6906 66.0812 50.8175 59.4724 48.1369C57.1768 47.0818 54.6173 46.3261 53.8545 44.5865C53.5836 43.5742 53.548 43.0038 53.7191 42.3907C54.211 40.4016 56.585 39.7814 58.4672 40.3517C59.6791 40.7581 60.8269 41.6921 61.5185 43.182C64.7552 41.0861 64.748 41.1003 67.008 39.6603C66.181 38.377 65.739 37.7852 65.1972 37.2363C63.2509 35.0619 60.5988 33.9426 56.3569 34.0281C55.6226 34.1208 54.8812 34.2205 54.1468 34.3133C52.0295 34.848 50.0118 35.9602 48.8284 37.4502C45.278 41.4782 46.2903 48.529 50.6107 51.4307C54.8669 54.6246 61.1192 55.3518 61.9177 58.339C62.6948 61.9963 59.2301 63.1797 55.7865 62.7591C53.2485 62.2315 51.837 60.9411 50.3113 58.5956C47.5024 60.2211 47.5024 60.2211 44.615 61.8822C45.2995 63.3794 46.0194 64.0566 47.1673 65.3542C52.5998 70.8651 66.1953 70.5942 68.6336 62.2529C68.7333 61.9677 69.3893 60.057 68.8616 57.1126ZM40.7723 34.4701H33.7571C33.7571 40.53 33.7286 46.5471 33.7286 52.6069C33.7286 56.4639 33.9283 60 33.3009 61.0837C32.2743 63.2152 29.615 62.9515 28.4031 62.538C27.1697 61.932 26.5423 61.0693 25.8151 59.8503C25.6155 59.501 25.4658 59.23 25.4158 59.2087C23.5124 60.3707 21.6159 61.5399 19.7124 62.702C20.6607 64.6483 22.0579 66.3379 23.8474 67.4358C26.5209 69.0399 30.114 69.5318 33.8712 68.6691C36.3166 67.9562 38.4268 66.4805 39.5318 64.2348C41.1288 61.2904 40.7865 57.7258 40.7723 53.7833C40.8079 47.3527 40.7723 40.9221 40.7723 34.4701Z" fill="#323330"/>
</g>
<defs>
<clipPath id="clip0_315_93">
<rect width="75" height="75" fill="white"/>
</clipPath>
</defs>
</svg>
