<svg width="74" height="74" viewBox="0 0 74 74" fill="none" xmlns="http://www.w3.org/2000/svg">
<g clip-path="url(#clip0_316_98)">
<path d="M34.5791 0.057798C34.4202 0.0722497 33.9144 0.122831 33.4591 0.15896C22.96 1.10555 13.1256 6.77062 6.89689 15.4778C3.42848 20.3191 1.21014 25.8108 0.37194 31.6276C0.0756801 33.658 0.0395508 34.2578 0.0395508 37.0108C0.0395508 39.7639 0.0756801 40.3636 0.37194 42.3941C2.38073 56.275 12.2585 67.9375 25.6552 72.2586C28.0542 73.0317 30.5832 73.5592 33.4591 73.8772C34.5791 74 39.4205 74 40.5405 73.8772C45.5046 73.328 49.7101 72.0996 53.8577 69.9824C54.4936 69.6572 54.6164 69.5705 54.5297 69.4983C54.4719 69.4549 51.7622 65.8203 48.5106 61.427L42.5998 53.4424L35.1933 42.4808C31.118 36.4544 27.7652 31.5264 27.7363 31.5264C27.7074 31.5192 27.6785 36.3894 27.664 42.3363C27.6423 52.7487 27.6351 53.1678 27.505 53.4135C27.3172 53.7676 27.1726 53.9121 26.8692 54.0711C26.6379 54.1867 26.4356 54.2084 25.3445 54.2084H24.0944L23.762 53.9988C23.5453 53.8615 23.3863 53.6809 23.2779 53.4713L23.1262 53.1462L23.1406 38.6583L23.1623 24.1633L23.3863 23.8814C23.5019 23.7297 23.7476 23.5346 23.921 23.4407C24.2173 23.2962 24.3329 23.2817 25.583 23.2817C27.057 23.2817 27.3027 23.3395 27.6857 23.7586C27.7941 23.8742 31.8044 29.915 36.6024 37.1915C41.4004 44.4679 47.9614 54.4035 51.1842 59.2809L57.0371 68.147L57.3334 67.952C59.9564 66.2467 62.7311 63.8188 64.9277 61.2897C69.6029 55.9209 72.6161 49.3743 73.6277 42.3941C73.9239 40.3636 73.9601 39.7639 73.9601 37.0108C73.9601 34.2578 73.9239 33.658 73.6277 31.6276C71.6189 17.7467 61.7411 6.08416 48.3444 1.7631C45.9815 0.997159 43.4669 0.469672 40.6489 0.151734C39.9552 0.0794756 35.1789 -8.82521e-06 34.5791 0.057798ZM49.7101 22.4146C50.0569 22.588 50.3387 22.9204 50.4399 23.2672C50.4977 23.4551 50.5122 27.4727 50.4977 36.5267L50.476 49.5188L48.1854 46.007L45.8876 42.4953V33.0511C45.8876 26.9452 45.9165 23.5129 45.9599 23.3467C46.0755 22.9421 46.3284 22.6241 46.6752 22.4363C46.9715 22.2845 47.0799 22.2701 48.2143 22.2701C49.2838 22.2701 49.4716 22.2845 49.7101 22.4146Z" fill="white"/>
<path d="M56.6762 68.306C56.4233 68.465 56.3438 68.5734 56.5678 68.4505C56.7268 68.3566 56.9869 68.1615 56.9436 68.1543C56.9219 68.1543 56.7991 68.2265 56.6762 68.306ZM56.1776 68.6312C56.0476 68.7323 56.0476 68.7396 56.2065 68.6601C56.2932 68.6167 56.3655 68.5661 56.3655 68.5517C56.3655 68.4939 56.3294 68.5083 56.1776 68.6312ZM55.8163 68.8479C55.6863 68.9491 55.6863 68.9563 55.8452 68.8769C55.932 68.8335 56.0042 68.7829 56.0042 68.7685C56.0042 68.7107 55.9681 68.7251 55.8163 68.8479ZM55.4551 69.0647C55.325 69.1659 55.325 69.1731 55.484 69.0936C55.5707 69.0503 55.6429 68.9997 55.6429 68.9852C55.6429 68.9274 55.6068 68.9419 55.4551 69.0647ZM54.9059 69.3538C54.6313 69.4983 54.6458 69.5561 54.9203 69.4188C55.0432 69.3538 55.1371 69.2887 55.1371 69.2743C55.1371 69.2237 55.1299 69.2309 54.9059 69.3538Z" fill="white"/>
</g>
<defs>
<clipPath id="clip0_316_98">
<rect width="74" height="74" fill="white"/>
</clipPath>
</defs>
</svg>
