<svg width="100" height="74" viewBox="0 0 100 74" fill="none" xmlns="http://www.w3.org/2000/svg">
<g clip-path="url(#clip0_316_96)">
<path d="M37.5527 51.6047C37.1121 51.5188 36.9395 51.4863 36.7668 51.4516C31.1855 50.3281 27.6574 46.6721 25.9855 40.9246C24.9434 37.3422 26.8371 34.704 30.3082 34.5303C33.1504 34.3878 35.0957 36.1561 36.816 38.2137C39.0336 40.8667 41.0664 43.6994 43.2445 46.3921C46.3805 50.2684 50.0754 52.7645 55.1309 51.9941C59.6641 51.3032 63.6145 49.3339 67.052 46.0928C67.5687 45.6056 68.1356 45.1811 68.6797 44.7274L68.3367 44.2897C65.4512 45.2597 62.5082 45.5858 59.5012 45.4221C54.9512 45.1743 50.6156 44.1459 46.7363 41.4418C43.1965 38.974 40.5859 35.6673 39.3449 31.2506C38.3426 27.6826 40.3941 25.1865 43.8098 25.7023C45.1602 25.9062 46.2969 26.5645 47.3172 27.4982C48.148 28.2577 48.9449 29.0628 49.7922 29.7994C53.7789 33.2672 59.3496 33.46 64.4102 29.6949C56.0906 29.6539 50.4305 24.7002 45.459 18.4221C43.5133 15.9649 41.6137 13.4637 39.6277 11.0454C35.7852 6.36569 31.5223 2.24287 25.6852 0.836458C18.2289 -0.960245 11.0305 0.214018 4.12109 3.63955C2.74336 4.32246 1.42031 5.11658 0 6.39613C0.703125 6.39613 1.08672 6.40544 1.46953 6.39487C4.95312 6.29761 7.56367 7.97338 9.44648 11.0581C10.8168 13.303 11.4625 15.8418 11.9547 18.4538C12.6852 22.3301 12.307 26.2821 12.7289 30.1761C13.8133 40.1872 18.5398 47.1731 27.3406 50.7505C30.568 52.0626 33.8781 52.4994 37.5527 51.6047ZM15.3109 5.93776C13.9203 6.31748 12.809 5.70984 11.6637 4.45524C13.625 3.92625 15.3547 3.72116 17.2133 3.64209C17.0613 4.94828 16.3496 5.65445 15.3109 5.93776ZM60.8805 64.3977C60.7594 63.434 59.9988 63.0094 59.4008 62.5054C56.7555 60.2765 53.6617 59.4875 50.3816 59.4219C48.4242 59.383 46.4871 59.2249 44.641 58.4819C43.7949 58.1415 42.8484 57.7043 42.8699 56.5207C42.8914 55.3198 43.8566 54.9803 44.7352 54.6961C45.4543 54.4636 46.1965 54.3151 47.0152 54.1079C44.9355 52.6652 42.9039 52.4652 40.1969 53.6437C35.9355 55.4983 31.7344 55.2784 27.4863 53.6179C25.0879 52.6808 22.9594 51.2097 20.7434 49.9069L20.6828 49.9521L20.7402 49.909C20.6855 49.728 20.5863 49.7234 20.459 49.8244L20.6328 49.9894C22.4707 53.25 24.9535 55.8734 27.7582 58.1153C33.1598 62.4327 39.0598 65.0074 45.9633 63.8649C48.1949 63.4946 50.438 63.2105 52.6883 63.0132C55.5078 62.7667 58.1941 63.6255 60.8805 64.3977ZM47.8652 17.622C47.716 17.5049 47.5727 17.211 47.268 17.5151C49.7516 21.1516 52.9422 23.8325 56.784 25.5201C62.9844 28.2437 69.2773 28.7097 75.7137 26.3062C80.7105 24.4406 84.3039 26.2635 86.1699 31.5153C86.4398 25.4195 83.127 20.9778 77.85 20.1072C74.8812 19.6175 72.1402 20.6835 69.3594 21.5567C61.6207 23.9856 54.4293 22.7864 47.8652 17.622ZM86.4344 41.3982C87.443 41.49 88.4508 41.5889 89.459 41.6845C87.1809 39.5182 84.4043 39.3466 81.5953 39.5195C77.318 39.7825 74.2363 42.4528 71.4269 45.6433C68.9516 48.4552 66.7148 51.6097 63.0207 52.7396C63.0824 52.8597 63.0984 52.9197 63.1156 52.9197C63.6125 52.9278 64.1105 52.9531 64.6062 52.9286C69.9715 52.6656 75.0258 51.4406 79.0465 47.2256C80.3125 45.8982 81.4457 44.4238 82.668 43.0461C83.6875 41.8972 84.9238 41.2604 86.4344 41.3982ZM73.9707 34.2004C69.9668 34.5793 66.4887 36.3722 63.2219 38.7364C60.7074 40.5559 58.0184 41.4168 54.9965 40.8477C54.4648 40.7475 53.9293 40.6726 53.3957 40.5859L53.3773 40.8278C53.5695 40.9348 53.7551 41.06 53.9551 41.1458C54.4586 41.3615 54.9547 41.6211 55.4773 41.7556C61.2922 43.252 66.8586 42.4854 71.8773 38.9761C75.0406 36.7642 78.3152 36.3451 81.8645 36.9164C82.223 36.9743 82.5801 37.045 82.9402 37.0813C83.2738 37.1156 83.6223 37.4746 84.0727 37.086C80.9699 34.6597 77.6277 33.8545 73.9707 34.2004ZM59.6605 19.4881C61.7609 19.5667 63.852 19.2691 66.0488 17.8563C65.4055 17.918 65.1324 17.9168 64.8707 17.9734C61.8441 18.6263 59.1273 17.9117 56.7074 15.8406C55.8195 15.0803 54.9168 14.3403 54.0176 13.5956C50.4527 10.6441 46.3648 9.65676 41.8934 9.74048C41.9656 9.97855 41.9699 10.1418 42.0477 10.2263C46.9129 15.5534 52.5438 19.2225 59.6605 19.4881ZM94.8723 46.8205C91.8613 43.5878 87.8207 43.1713 84.0816 45.9925C86.5566 46.1131 88.4145 46.9676 89.9211 48.6565C90.4543 49.254 91.007 49.8405 91.6035 50.3615C93.8816 52.3506 97.7438 52.4461 100 50.6008C97.3496 49.4811 97.3496 49.4811 94.8723 46.8205ZM64.8852 71.5764C62.2391 66.2447 57.7918 65.0417 52.6543 65.3994C54.173 65.8552 55.5914 66.5567 56.893 67.5403C58.0887 68.4439 59.0949 69.5628 60.0867 70.7087C62.052 72.979 65.1191 74.3723 67.1516 73.9013C66.2184 73.2645 65.3895 72.5921 64.8852 71.5764ZM89.5066 41.7945C89.5074 41.7606 89.5082 41.7264 89.5102 41.6909L89.5023 41.6997L89.5109 41.6896L89.459 41.6845C89.4691 41.6947 89.4801 41.7027 89.4902 41.7128L89.5066 41.7945ZM61.0273 64.5232C60.9927 64.5018 60.9579 64.4805 60.923 64.4594C60.9265 64.4831 60.9339 64.5059 60.9449 64.5266C60.952 64.5393 60.9988 64.5249 61.0273 64.5232ZM60.923 64.4594C60.9199 64.4421 60.9172 64.4243 60.9129 64.407L60.9008 64.423L60.9129 64.4074L60.8805 64.3977C60.8824 64.412 60.8871 64.4239 60.8887 64.4387L60.923 64.4594Z" fill="#FD4F00"/>
</g>
<defs>
<clipPath id="clip0_316_96">
<rect width="100" height="74" fill="white"/>
</clipPath>
</defs>
</svg>
