<svg width="77" height="79" viewBox="0 0 77 79" fill="none" xmlns="http://www.w3.org/2000/svg">
<g clip-path="url(#clip0_316_118)">
<path d="M76.7016 47.3011C76.2399 45.9101 75.0304 44.9413 73.4664 44.7088C72.7289 44.5993 71.8843 44.6459 70.8848 44.8509C69.1426 45.2085 67.8502 45.3446 66.9069 45.3709C70.4673 39.3912 73.3623 32.5721 75.0289 26.1531C77.7239 15.7737 76.2838 11.0453 74.6009 8.90649C70.1472 3.24539 63.6495 0.204195 55.8105 0.11114C51.6287 0.0602736 47.9577 0.881612 46.0426 1.47226C44.2596 1.15928 42.3424 0.984541 40.3308 0.952226C36.5599 0.892384 33.2282 1.71013 30.3813 3.39081C28.8052 2.8606 26.2756 2.11317 23.3544 1.63623C16.484 0.514179 10.9466 1.38848 6.89626 4.23489C1.99172 7.68122 -0.281884 13.6691 0.138608 22.032C0.272155 24.6873 1.76523 32.766 4.11614 40.4276C5.46725 44.8314 6.90799 48.4884 8.39836 51.298C10.512 55.282 12.7735 57.6282 15.3124 58.4707C16.7354 58.9423 19.3209 59.2726 22.0403 57.0196C22.385 57.4349 22.8449 57.8475 23.4552 58.2308C24.2303 58.717 25.178 59.1144 26.1246 59.3498C29.5358 60.1981 32.731 59.986 35.4569 58.7969C35.4738 59.2792 35.4867 59.74 35.4976 60.138C35.5156 60.7834 35.5336 61.4162 35.5574 62.008C35.7189 66.0097 35.9926 69.1212 36.8035 71.2983C36.8481 71.418 36.9079 71.6005 36.9711 71.7941C37.3756 73.0262 38.0521 75.089 39.7732 76.7045C41.5553 78.378 43.711 78.8911 45.6853 78.8911C46.6755 78.8911 47.6202 78.7618 48.4489 78.5853C51.4026 77.9555 54.7572 76.9962 57.1839 73.5588C59.4782 70.3094 60.5935 65.4152 60.7954 57.7036C60.8215 57.4854 60.8456 57.2772 60.8687 57.0788L60.9169 56.6713L61.4574 56.7186L61.5966 56.7278C64.605 56.8643 68.2836 56.2296 70.5428 55.1857C72.3279 54.3617 78.0485 51.3573 76.7016 47.3011Z" fill="black"/>
<path d="M71.5577 48.0899C62.6125 49.9256 61.9974 46.9128 61.9974 46.9128C71.4419 32.9716 75.3903 15.2753 71.9833 10.9442C62.688 -0.870203 46.5977 4.71729 46.3291 4.86211L46.2428 4.87767C44.4754 4.51263 42.4977 4.2954 40.2747 4.2592C36.2274 4.19337 33.157 5.31482 30.8271 7.07239C30.8271 7.07239 2.12358 -4.69085 3.45875 21.8667C3.74269 27.5164 11.5991 64.616 20.9696 53.4102C24.3946 49.3125 27.7041 45.8479 27.7041 45.8479C29.3476 46.9341 31.3153 47.4882 33.3781 47.2892L33.5384 47.154C33.4884 47.6627 33.5113 48.1603 33.6024 48.7494C31.1884 51.4324 31.8979 51.9034 27.0722 52.8917C22.189 53.8929 25.0575 55.675 26.9305 56.1411C29.2011 56.7058 34.454 57.5059 38.0032 52.5632L37.8618 53.1272C38.8075 53.8809 39.4716 58.0292 39.3603 61.79C39.249 65.5505 39.1747 68.1324 39.9198 70.1491C40.6654 72.1658 41.408 76.7033 47.7521 75.3512C53.0528 74.2211 55.7998 71.2927 56.1821 66.4077C56.4531 62.9351 57.067 63.4485 57.1055 60.3436L57.5979 58.8739C58.1654 54.1663 57.6881 52.6475 60.9537 53.354L61.7477 53.4234C64.151 53.532 67.2972 53.0386 69.1436 52.185C73.1194 50.3496 75.4775 47.2848 71.5571 48.0899H71.5577Z" fill="#336791"/>
<path d="M32.5074 24.3935C31.7013 24.2819 30.9713 24.3851 30.602 24.6634C30.3944 24.8199 30.3301 25.0012 30.3126 25.126C30.2663 25.4566 30.4991 25.8223 30.6423 26.0108C31.0471 26.5446 31.6385 26.9114 32.2238 26.9922C32.3086 27.0042 32.3931 27.0095 32.4771 27.0095C33.4531 27.0095 34.3407 26.2534 34.4189 25.6954C34.5167 24.9964 33.4967 24.5303 32.5074 24.3935ZM59.212 24.4157C59.135 23.8678 58.1551 23.7116 57.225 23.8403C56.2962 23.9689 55.3957 24.386 55.4709 24.9351C55.531 25.3621 56.3062 26.091 57.2235 26.091C57.3011 26.091 57.3793 26.0859 57.4581 26.0748C58.0705 25.9904 58.5199 25.6035 58.7335 25.3806C59.0583 25.0407 59.2466 24.6619 59.212 24.4157Z" fill="white"/>
<path d="M74.5341 47.8812C74.193 46.8552 73.0952 46.5252 71.2712 46.8998C65.8557 48.0117 63.9162 47.2415 63.2795 46.7751C67.4889 40.3958 70.9518 32.6845 72.82 25.49C73.7049 22.0819 74.1936 18.9169 74.2336 16.3371C74.2778 13.5056 73.793 11.4249 72.7932 10.1538C68.7621 5.02983 62.8458 2.28126 55.6842 2.20586C50.7607 2.1508 46.6009 3.40421 45.7945 3.75668C44.0963 3.33658 42.2449 3.07866 40.2294 3.04575C36.5334 2.98621 33.3385 3.86649 30.6934 5.66087C29.5445 5.23539 26.5751 4.22136 22.9438 3.63939C16.6659 2.63403 11.6772 3.39583 8.1171 5.90473C3.86917 8.89864 1.90808 14.2504 2.28796 21.8109C2.4158 24.3545 3.87278 32.1795 6.17195 39.6732C9.19841 49.5365 12.4884 55.1201 15.9497 56.2688C16.3549 56.4031 16.822 56.4971 17.3373 56.4971C18.5999 56.4971 20.1481 55.931 21.7587 54.0046C23.7233 51.6602 25.7555 49.3726 27.8529 47.1449C29.2136 47.8714 30.7085 48.2771 32.2374 48.3178C32.2404 48.3576 32.2443 48.3974 32.2479 48.4369C31.9847 48.7491 31.727 49.0658 31.4749 49.3869C30.4155 50.7247 30.195 51.0032 26.7851 51.7016C25.8151 51.9009 23.2389 52.429 23.201 54.2254C23.1601 56.1883 26.2464 57.0126 26.598 57.1C27.8234 57.4052 29.004 57.5557 30.1298 57.5557C32.8678 57.5557 35.2774 56.6604 37.203 54.9283C37.1437 61.9257 37.437 68.8207 38.2816 70.9215C38.9734 72.6414 40.6631 76.8444 46.0008 76.8441C46.784 76.8441 47.6461 76.7535 48.5944 76.5512C54.1652 75.3633 56.5844 72.914 57.5201 67.5141C58.0209 64.6282 58.8803 57.737 59.2845 54.0405C60.1375 54.3053 61.2357 54.4265 62.4229 54.4262C64.8989 54.4262 67.756 53.9029 69.5478 53.0756C71.5606 52.1456 75.1928 49.8638 74.5341 47.8812ZM61.2679 22.903C61.2495 23.9942 61.0985 24.9849 60.9385 26.019C60.7662 27.1312 60.5881 28.281 60.5433 29.6769C60.4991 31.0353 60.6696 32.4476 60.8344 33.8135C61.1677 36.5722 61.5097 39.4123 60.1859 42.2148C59.9661 41.8272 59.7702 41.4266 59.5994 41.0152C59.4349 40.6185 59.0776 39.9811 58.5828 39.0991C56.6581 35.6653 52.1509 27.6243 54.4582 24.3431C55.1455 23.3665 56.8897 22.3623 61.2679 22.903ZM55.9609 4.41554C62.3777 4.55647 67.4537 6.94449 71.0475 11.5129C73.8038 15.0169 70.7686 30.9611 61.9819 44.7162C61.8936 44.6044 61.8047 44.493 61.7154 44.382L61.6041 44.2437C63.8747 40.5134 63.4308 36.8226 63.0355 33.5505C62.8731 32.2076 62.7197 30.9392 62.7588 29.7478C62.7991 28.4851 62.967 27.4019 63.1294 26.3547C63.3288 25.0642 63.5318 23.7288 63.4759 22.1547C63.5177 21.9895 63.5345 21.7944 63.5126 21.5628C63.3697 20.0533 61.6372 15.5355 58.106 11.4464C56.1744 9.20983 53.3576 6.70691 49.5115 5.01876C51.1658 4.67765 53.428 4.35959 55.9609 4.41554ZM20.0542 52.5947C18.2796 54.7174 17.0542 54.3104 16.6512 54.177C14.0254 53.3057 10.9784 47.7846 8.29216 39.0296C5.96772 31.4542 4.60939 23.8365 4.50171 21.7005C4.16243 14.9448 5.80861 10.2367 9.39482 7.70658C15.2312 3.58942 24.8267 6.05373 28.6824 7.30354C28.6271 7.358 28.5693 7.40887 28.5146 7.46422C22.1874 13.8207 22.3374 24.6809 22.3531 25.3449C22.3525 25.601 22.3741 25.9636 22.4036 26.4624C22.5125 28.2891 22.7152 31.6888 22.1738 35.5387C21.6709 39.1164 22.7796 42.6181 25.215 45.1461C25.465 45.4051 25.7277 45.6516 26.0022 45.8846C24.9181 47.0396 22.5621 49.5936 20.0542 52.5947ZM26.8155 43.6205C24.8526 41.5828 23.9611 38.7487 24.3692 35.8439C24.9407 31.777 24.7299 28.235 24.6165 26.332C24.6005 26.0657 24.5864 25.8323 24.5783 25.6483C25.5026 24.8329 29.786 22.5499 32.8407 23.2462C34.2345 23.5636 35.084 24.508 35.4371 26.1321C37.2646 34.5409 35.6789 38.0455 34.4048 40.862C34.1422 41.4422 33.8941 41.9906 33.6823 42.558L33.5181 42.9966C33.1024 44.1055 32.7156 45.1366 32.4759 46.1156C30.3891 46.1096 28.3591 45.2227 26.8155 43.6202V43.6205ZM27.1358 54.9606C26.5264 54.8092 25.9784 54.5462 25.6569 54.3281C25.9255 54.2024 26.4034 54.0313 27.2324 53.8613C31.2439 53.04 31.8635 52.4601 33.2164 50.7513C33.5265 50.3593 33.8781 49.9153 34.3651 49.3743L34.3657 49.3737C35.0909 48.5658 35.4226 48.7029 36.0242 48.9512C36.5118 49.1517 36.9867 49.7597 37.1792 50.4287C37.2703 50.7447 37.3726 51.3443 37.0378 51.8111C34.2117 55.7475 30.0934 55.697 27.1358 54.9606ZM48.13 74.3951C43.2225 75.4411 41.4849 72.9502 40.3398 70.1026C39.6008 68.2642 39.2374 59.9742 39.4952 50.8192C39.4985 50.6974 39.4811 50.5798 39.4474 50.4691C39.4172 50.2505 39.3714 50.0343 39.3102 49.8222C38.927 48.4901 37.9931 47.3759 36.8727 46.9139C36.4275 46.7305 35.6106 46.3939 34.6289 46.6437C34.8382 45.7856 35.2013 44.8164 35.595 43.7671L35.7601 43.3257C35.946 42.8281 36.1794 42.3126 36.426 41.7668C37.7594 38.8202 39.5854 34.7841 37.6036 25.6662C36.8613 22.251 34.3822 20.5832 30.6243 20.9707C28.3714 21.2026 26.3102 22.1068 25.2821 22.6253C25.061 22.7366 24.8589 22.8443 24.67 22.9491C24.9569 19.5081 26.041 13.0774 30.0961 9.00876C32.6494 6.4475 36.0498 5.18243 40.1927 5.25065C48.3559 5.3835 53.5907 9.55093 56.545 13.0239C59.0908 16.0163 60.4693 19.0309 61.0194 20.6568C56.8822 20.2382 54.0684 21.0506 52.6421 23.0792C49.5389 27.492 54.3397 36.0567 56.647 40.1729C57.0702 40.9272 57.4353 41.5792 57.5502 41.8563C58.3016 43.6677 59.2743 44.8771 59.9844 45.7598C60.2022 46.0303 60.4133 46.2927 60.574 46.5219C59.3209 46.8813 57.0702 47.7116 57.2753 51.862C57.1099 53.9445 55.9335 63.6946 55.3358 67.1395C54.5469 71.6905 52.8634 73.3855 48.13 74.3954V74.3951ZM68.6144 51.0756C67.3331 51.6672 65.1888 52.1109 63.152 52.2064C60.9021 52.3111 59.7567 51.9556 59.4872 51.7369C59.3609 49.1505 60.3285 48.8803 61.3527 48.5943C61.5136 48.5494 61.6706 48.5054 61.8222 48.4527C61.9163 48.529 62.0195 48.6047 62.1326 48.6789C63.9409 49.8662 67.1662 49.9943 71.7197 49.0592L71.7696 49.0494C71.1554 49.6206 70.1045 50.3871 68.6144 51.0756Z" fill="white"/>
</g>
<defs>
<clipPath id="clip0_316_118">
<rect width="77" height="79" fill="white"/>
</clipPath>
</defs>
</svg>
