<svg width="77" height="77" viewBox="0 0 77 77" fill="none" xmlns="http://www.w3.org/2000/svg">
<g clip-path="url(#clip0_316_123)">
<path d="M38.1702 0.0219727C18.6718 0.0219727 19.8892 8.5116 19.8892 8.5116L19.9109 17.3071H38.5179V19.9478H12.5205C12.5205 19.9478 0.043457 18.527 0.043457 38.2798C0.043457 58.0332 10.9337 57.3326 10.9337 57.3326H17.433V48.1663C17.433 48.1663 17.0826 37.2323 28.1494 37.2323H46.6042C46.6042 37.2323 56.9727 37.4005 56.9727 27.1713V10.2578C56.9727 10.2578 58.5474 0.0219727 38.1702 0.0219727ZM27.9103 5.93678C28.35 5.93638 28.7855 6.02304 29.1918 6.1918C29.5981 6.36055 29.9673 6.6081 30.2782 6.92026C30.5891 7.23242 30.8356 7.60307 31.0037 8.011C31.1718 8.41893 31.2581 8.85614 31.2577 9.2976C31.2581 9.73907 31.1718 10.1763 31.0037 10.5842C30.8356 10.9921 30.5891 11.3628 30.2782 11.675C29.9673 11.9871 29.5981 12.2347 29.1918 12.4034C28.7855 12.5722 28.35 12.6588 27.9103 12.6584C27.4706 12.6588 27.0352 12.5722 26.6289 12.4034C26.2226 12.2347 25.8534 11.9871 25.5425 11.675C25.2316 11.3628 24.985 10.9921 24.8169 10.5842C24.6489 10.1763 24.5625 9.73907 24.5629 9.2976C24.5625 8.85614 24.6489 8.41893 24.8169 8.011C24.985 7.60307 25.2316 7.23242 25.5425 6.92026C25.8534 6.6081 26.2226 6.36055 26.6289 6.1918C27.0352 6.02304 27.4706 5.93638 27.9103 5.93678Z" fill="url(#paint0_linear_316_123)"/>
<path d="M38.724 76.7361C58.2225 76.7361 57.005 68.2465 57.005 68.2465L56.9834 59.4512H38.3761V56.8106H64.3735C64.3735 56.8106 76.8505 58.2313 76.8505 38.478C76.8505 18.7249 65.9602 19.4254 65.9602 19.4254H59.461V28.5915C59.461 28.5915 59.8113 39.5255 48.7445 39.5255H30.2897C30.2897 39.5255 19.9213 39.3573 19.9213 49.5868V66.5005C19.9213 66.5005 18.3468 76.7361 38.7237 76.7361H38.724ZM48.9839 70.8219C48.5442 70.8223 48.1088 70.7356 47.7025 70.5669C47.2962 70.3981 46.927 70.1506 46.6161 69.8384C46.3052 69.5262 46.0586 69.1556 45.8905 68.7477C45.7225 68.3397 45.6362 67.9025 45.6365 67.4611C45.6361 67.0196 45.7224 66.5823 45.8905 66.1744C46.0585 65.7664 46.3051 65.3957 46.616 65.0835C46.9269 64.7713 47.2961 64.5238 47.7024 64.355C48.1087 64.1862 48.5442 64.0995 48.9839 64.0999C49.4236 64.0995 49.8591 64.1862 50.2654 64.3549C50.6717 64.5237 51.0409 64.7712 51.3518 65.0834C51.6627 65.3956 51.9092 65.7662 52.0773 66.1741C52.2454 66.5821 52.3317 67.0193 52.3313 67.4607C52.3317 67.9022 52.2454 68.3394 52.0773 68.7473C51.9092 69.1553 51.6627 69.5259 51.3518 69.8381C51.0409 70.1503 50.6717 70.3978 50.2654 70.5666C49.8591 70.7353 49.4236 70.8223 48.9839 70.8219Z" fill="url(#paint1_linear_316_123)"/>
</g>
<defs>
<linearGradient id="paint0_linear_316_123" x1="738.155" y1="690.022" x2="4559.57" y2="4458.18" gradientUnits="userSpaceOnUse">
<stop stop-color="#387EB8"/>
<stop offset="1" stop-color="#366994"/>
</linearGradient>
<linearGradient id="paint1_linear_316_123" x1="1109.37" y1="1198.88" x2="5212.38" y2="5062.07" gradientUnits="userSpaceOnUse">
<stop stop-color="#FFE052"/>
<stop offset="1" stop-color="#FFC331"/>
</linearGradient>
<clipPath id="clip0_316_123">
<rect width="77" height="77" fill="white"/>
</clipPath>
</defs>
</svg>
