<svg width="81" height="73" viewBox="0 0 81 73" fill="none" xmlns="http://www.w3.org/2000/svg">
<path d="M81 36.3499C81 30.9432 74.2803 25.8193 63.9778 22.6418C66.3553 12.0612 65.2986 3.64331 60.6427 0.948258C59.5695 0.316086 58.3147 0.0166359 56.9443 0.0166359V3.72649C57.7038 3.72649 58.3147 3.87622 58.8265 4.15903C61.072 5.45665 62.0461 10.3976 61.2866 16.7526C61.105 18.3164 60.8078 19.9633 60.4446 21.6436C57.2085 20.8451 53.6753 20.2295 49.9605 19.8303C47.7315 16.7526 45.4201 13.9577 43.0921 11.5122C48.4745 6.47145 53.5267 3.70985 56.9609 3.70985V0C52.4205 0 46.4768 3.26068 40.467 8.91696C34.4572 3.29395 28.5135 0.0665447 23.9731 0.0665447V3.7764C27.3907 3.7764 32.4594 6.52136 37.8418 11.5288C35.5304 13.9743 33.2189 16.7526 31.023 19.8303C27.2917 20.2295 23.7585 20.8451 20.5224 21.6602C20.1427 19.9966 19.862 18.3829 19.6639 16.8358C18.8879 10.4808 19.8455 5.53983 22.0744 4.22557C22.5697 3.92612 23.2136 3.79304 23.9731 3.79304V0.0831806C22.5862 0.0831806 21.3314 0.38263 20.2417 1.0148C15.6023 3.70985 14.5622 12.1111 16.9562 22.6584C6.68671 25.8525 0 30.9598 0 36.3499C0 41.7567 6.71973 46.8806 17.0222 50.0581C14.6447 60.6386 15.7014 69.0565 20.3573 71.7516C21.4305 72.3838 22.6853 72.6832 24.0722 72.6832C28.6125 72.6832 34.5563 69.4225 40.566 63.7662C46.5758 69.3892 52.5196 72.6167 57.0599 72.6167C58.4468 72.6167 59.7016 72.3172 60.7913 71.685C65.4307 68.99 66.4708 60.5887 64.0768 50.0414C74.3133 46.8639 81 41.74 81 36.3499ZM59.5035 25.2536C58.8926 27.3997 58.1331 29.6123 57.2746 31.8249C56.5976 30.494 55.8877 29.1631 55.1117 27.8322C54.3522 26.5013 53.5432 25.2037 52.7342 23.9394C55.0787 24.2887 57.3406 24.7213 59.5035 25.2536ZM51.9417 42.9711C50.6539 45.217 49.3331 47.3464 47.9627 49.3261C45.5027 49.5424 43.0096 49.6588 40.5 49.6588C38.0069 49.6588 35.5139 49.5424 33.0703 49.3427C31.7 47.363 30.3626 45.2502 29.0748 43.021C27.82 40.8417 26.6808 38.6291 25.6406 36.3998C26.6643 34.1706 27.82 31.9413 29.0583 29.762C30.3461 27.5161 31.6669 25.3867 33.0373 23.407C35.4973 23.1907 37.9904 23.0743 40.5 23.0743C42.9931 23.0743 45.4861 23.1908 47.9297 23.3904C49.3 25.3701 50.6374 27.4829 51.9252 29.7121C53.18 31.8914 54.3192 34.104 55.3594 36.3333C54.3192 38.5625 53.18 40.7918 51.9417 42.9711ZM57.2746 40.8084C58.1661 43.0376 58.9256 45.2669 59.553 47.4296C57.3901 47.9619 55.1117 48.4111 52.7507 48.7605C53.5597 47.4795 54.3687 46.1652 55.1282 44.8177C55.8877 43.4868 56.5976 42.1393 57.2746 40.8084ZM40.533 58.5591C38.9976 56.9621 37.4621 55.182 35.9431 53.2356C37.4291 53.3021 38.948 53.352 40.4835 53.352C42.0355 53.352 43.5709 53.3188 45.0734 53.2356C43.5874 55.182 42.052 56.9621 40.533 58.5591ZM28.2493 48.7605C25.9048 48.4111 23.6429 47.9786 21.48 47.4462C22.0909 45.3002 22.8504 43.0875 23.7089 40.8749C24.3859 42.2058 25.0958 43.5367 25.8718 44.8676C26.6478 46.1985 27.4403 47.4961 28.2493 48.7605ZM40.4505 14.1407C41.9859 15.7378 43.5214 17.5178 45.0404 19.4643C43.5544 19.3977 42.0355 19.3478 40.5 19.3478C38.948 19.3478 37.4126 19.3811 35.9101 19.4643C37.396 17.5178 38.9315 15.7378 40.4505 14.1407ZM28.2328 23.9394C27.4238 25.2204 26.6148 26.5346 25.8553 27.8821C25.0958 29.213 24.3859 30.5439 23.7089 31.8748C22.8174 29.6456 22.0579 27.4163 21.4305 25.2536C23.5934 24.7379 25.8718 24.2887 28.2328 23.9394ZM13.2909 44.7678C7.44619 42.2557 3.66531 38.9618 3.66531 36.3499C3.66531 33.738 7.44619 30.4275 13.2909 27.932C14.7108 27.3165 16.2627 26.7675 17.8642 26.2518C18.8053 29.5125 20.0436 32.9062 21.5791 36.3832C20.0601 39.8435 18.8384 43.2206 17.9138 46.4647C16.2793 45.949 14.7273 45.3833 13.2909 44.7678ZM22.1735 68.5408C19.928 67.2432 18.9539 62.3023 19.7134 55.9473C19.895 54.3835 20.1922 52.7365 20.5554 51.0562C23.7915 51.8548 27.3247 52.4703 31.0395 52.8696C33.2685 55.9473 35.5799 58.7421 37.9079 61.1876C32.5255 66.2284 27.4733 68.99 24.0391 68.99C23.2962 68.9734 22.6688 68.8236 22.1735 68.5408ZM61.3361 55.8641C62.1121 62.2191 61.1545 67.16 58.9256 68.4743C58.4303 68.7737 57.7864 68.9068 57.0269 68.9068C53.6092 68.9068 48.5406 66.1618 43.1582 61.1544C45.4696 58.7089 47.7811 55.9306 49.977 52.853C53.7083 52.4537 57.2415 51.8381 60.4776 51.023C60.8573 52.7032 61.1545 54.3169 61.3361 55.8641ZM67.6926 44.7678C66.2727 45.3833 64.7207 45.9323 63.1192 46.448C62.1781 43.1874 60.9399 39.7936 59.4044 36.3166C60.9234 32.8563 62.1451 29.4792 63.0697 26.2352C64.7042 26.7509 66.2562 27.3165 67.7091 27.932C73.5538 30.4441 77.3347 33.738 77.3347 36.3499C77.3182 38.9618 73.5373 42.2724 67.6926 44.7678Z" fill="#61DAFB"/>
<path d="M40.4837 43.9525C44.6509 43.9525 48.029 40.5486 48.029 36.3498C48.029 32.1509 44.6509 28.7471 40.4837 28.7471C36.3166 28.7471 32.9385 32.1509 32.9385 36.3498C32.9385 40.5486 36.3166 43.9525 40.4837 43.9525Z" fill="#61DAFB"/>
</svg>
